<svg width="16" height="16" viewBox="0 0 16 16" fill="none" xmlns="http://www.w3.org/2000/svg">
<path fill-rule="evenodd" clip-rule="evenodd" d="M2.89379 12.3219C2.308 11.7361 2.308 10.7864 2.89379 10.2006L3.6009 9.49346C4.18668 8.90768 5.13643 8.90768 5.72222 9.49346L6.13848 9.90972C6.34047 10.1117 6.64978 10.1601 6.90384 10.0296C8.24646 9.33946 9.33945 8.24647 10.0295 6.90385C10.1601 6.64979 10.1117 6.34048 9.90971 6.13849L9.49345 5.72223C8.90767 5.13644 8.90767 4.18669 9.49345 3.60091L10.2006 2.8938C10.7863 2.30801 11.7361 2.30801 12.3219 2.8938L13.0771 3.64905L13.167 3.73891C13.8423 4.41418 14.0322 5.43548 13.6448 6.30835C12.1933 9.57873 9.57872 12.1933 6.30834 13.6448C5.43547 14.0322 4.41417 13.8423 3.7389 13.167L3.64904 13.0771L2.89379 12.3219Z" fill="#4383FF"/>
</svg>
