<svg width="16" height="16" viewBox="0 0 16 16" fill="none" xmlns="http://www.w3.org/2000/svg">
<path fill-rule="evenodd" clip-rule="evenodd" d="M8.55885 13.5569C9.79786 12.5125 12.6666 9.72536 12.6666 6.30769C12.6666 4.14286 10.8116 2 7.99998 2C5.18835 2 3.33331 3.92862 3.33331 6.30769C3.33331 9.72536 6.20209 12.5125 7.4411 13.5569C7.76781 13.8323 8.23215 13.8323 8.55885 13.5569ZM7.99998 7.33333C8.73636 7.33333 9.33331 6.73638 9.33331 6C9.33331 5.26362 8.73636 4.66667 7.99998 4.66667C7.2636 4.66667 6.66665 5.26362 6.66665 6C6.66665 6.73638 7.2636 7.33333 7.99998 7.33333Z" fill="#4383FF"/>
</svg>
